plyformat ascii 1.0comment comment 1comment comment 2element vertex 3property char aproperty uchar bproperty short cproperty ushort dproperty int eproperty uint fproperty float gproperty double helement vertex_lists 1property list uchar char aproperty list uchar uchar bproperty list uchar short cproperty list uchar ushort dproperty list uchar int eproperty list uchar uint fproperty list uchar float gproperty list uchar double hend_header-1 1 -1 1 -1 1 1.5 1.52 2 2 2 2 2 2.5 2.50 0 0 0 0 0 3.14159274 3.14159265358979313 -1 2 0 3 1 2 0 3 -1 2 0 3 1 2 0 3 -1 2 0 3 1 2 0 3 1.5 2.5 3.14159274 3 1.5 2.5 3.1415926535897931