plyformat ascii 1.0comment comment 1comment comment 2obj_info obj info 1obj_info obj info 2element vertex_lists 1property list uchar double hproperty list uchar float gproperty list uchar uint fproperty list uchar int eproperty list uchar ushort dproperty list uchar short cproperty list uchar uchar bproperty list uchar char aelement vertex 3property double hproperty float gproperty uint fproperty int eproperty ushort dproperty short cproperty uchar bproperty char aend_header3 1.5 2.5 3.1415926535897931 3 1.5 2.5 3.14159274 3 1 2 0 3 -1 2 0 3 1 2 0 3 -1 2 0 3 1 2 0 3 -1 2 01.5 1.5 1 -1 1 -1 1 -12.5 2.5 2 2 2 2 2 23.1415926535897931 3.14159274 0 0 0 0 0 0